<svg version="1.1" id="Layer_1" xmlns="http://www.w3.org/2000/svg" xmlns:xlink="http://www.w3.org/1999/xlink" x="0px" y="0px"
	 width="100%" viewBox="0 0 184 86" enable-background="new 0 0 184 86" xml:space="preserve">
<path fill="#000000" opacity="1.000000" stroke="none" 
	d="
M1.000000,73.000000 
	C1.000000,49.021656 1.000000,25.043312 1.000000,1.032485 
	C62.256317,1.032485 123.512657,1.032485 184.884491,1.032485 
	C184.884491,29.563381 184.884491,58.127388 184.884491,86.845695 
	C123.667000,86.845695 62.333519,86.845695 1.000000,86.845695 
	C1.000000,84.310760 1.000000,81.646431 1.325823,78.247116 
	C6.403409,80.867393 11.309075,82.218323 16.789370,79.077660 
	C21.443768,76.410301 24.370476,72.428627 25.977600,67.455467 
	C28.692820,59.053368 31.283655,50.610813 33.890320,42.174000 
	C35.205235,37.918118 36.440155,33.637520 37.972935,28.489115 
	C31.860117,29.055359 26.332485,28.984112 21.109861,30.211109 
	C15.611031,31.503000 12.989056,36.240059 12.192853,41.542099 
	C11.956075,43.118839 13.503332,45.058830 14.521937,46.647171 
	C14.722301,46.959606 16.905539,46.647297 17.048891,46.233372 
	C17.568798,44.732155 17.475706,43.031837 17.863493,41.468552 
	C18.436028,39.160492 18.534637,35.982391 20.072891,34.836582 
	C22.599993,32.954212 26.119640,32.404346 30.265768,30.918022 
	C28.189648,38.294571 26.725538,44.138969 24.888960,49.863876 
	C22.444771,57.482800 20.071838,65.160316 16.981186,72.524277 
	C14.703425,77.951401 12.358784,78.321381 8.057313,74.382042 
	C5.714667,72.236618 3.526144,72.536278 1.000000,73.000000 
M53.017193,35.630966 
	C51.315487,42.452671 49.973736,49.394314 47.757866,56.044701 
	C46.674980,59.294735 46.284752,63.778664 41.298977,64.510979 
	C40.729218,64.594673 40.408466,66.373665 40.133144,67.000366 
	C43.820801,67.000366 46.906834,67.000366 49.992870,67.000366 
	C52.962723,67.000366 55.932575,67.000366 58.902431,67.000366 
	C58.962528,66.293137 59.022625,65.585907 59.082722,64.878685 
	C56.815899,64.402512 54.549080,63.926346 52.230427,63.439293 
	C53.499657,58.967831 54.802280,54.595840 55.972744,50.188755 
	C56.967678,46.442593 62.010075,44.433842 65.467247,46.400169 
	C65.969948,47.704891 66.438187,48.920170 66.906418,50.135452 
	C67.449562,50.140579 67.992699,50.145706 68.535835,50.150829 
	C69.374756,46.609024 70.213669,43.067215 71.000229,39.746441 
	C66.620735,40.767540 62.636372,41.696514 57.763546,42.832638 
	C58.727112,39.350071 59.265171,37.162506 59.938118,35.017254 
	C62.263241,27.605137 62.296085,28.081272 69.913071,27.839287 
	C75.008652,27.677402 73.132614,32.234306 75.997932,35.050983 
	C77.229027,31.047274 78.200203,27.888830 79.056587,25.103735 
	C69.746460,25.103735 60.774704,24.292885 52.017101,25.315685 
	C41.819439,26.506666 34.838634,36.857838 36.013577,46.948723 
	C36.561810,51.657143 38.759220,52.802891 43.016541,50.405174 
	C41.507221,45.777214 38.640999,41.233273 41.935070,36.106281 
	C44.979427,31.367952 49.332657,29.238745 55.012131,28.240707 
	C54.272732,30.783522 53.686890,32.798244 53.017193,35.630966 
M180.161957,33.986870 
	C181.166290,32.863571 182.170639,31.740273 183.174973,30.616976 
	C181.974579,30.078388 180.601624,28.870943 179.606400,29.127674 
	C176.718109,29.872753 173.431366,30.575977 171.300049,32.438751 
	C166.915176,36.271168 163.179871,40.846794 158.781723,45.538479 
	C157.966568,41.226864 157.218292,37.269054 156.482880,33.379230 
	C146.110779,32.251656 145.160812,32.531033 145.620499,36.252323 
	C147.258392,36.252323 148.867416,36.252323 150.472763,36.252323 
	C151.165756,39.908981 151.365829,43.617641 152.619339,46.927326 
	C154.297958,51.359467 153.019730,54.735920 150.380188,58.102291 
	C148.356018,60.683826 146.668381,63.566616 144.425476,65.930611 
	C140.958847,69.584412 137.945267,73.951996 132.150970,74.482597 
	C128.886795,74.781502 128.306641,76.893196 129.739487,80.265816 
	C144.047501,79.187447 147.362762,65.506157 156.100067,57.090996 
	C156.573181,63.778038 156.995972,69.753784 157.396057,75.408737 
	C161.845764,75.408737 165.855927,75.408737 170.149719,75.408737 
	C169.793320,74.352066 169.627701,73.521835 169.498856,73.527504 
	C162.104660,73.852821 162.759705,68.798485 162.954391,63.941338 
	C162.998734,62.835442 162.456268,61.717529 162.287720,60.589634 
	C161.511566,55.395000 158.800720,50.150566 164.120026,45.453892 
	C168.924316,41.211945 171.951126,34.719707 180.161957,33.986870 
M86.786812,61.926731 
	C89.504295,53.029449 91.831467,43.987911 95.051231,35.276268 
	C98.146904,26.900360 98.842461,26.972946 106.812126,30.251122 
	C107.797005,30.656237 109.152397,30.160587 110.336098,30.082344 
	C110.115288,28.785101 110.311966,27.116962 109.570450,26.282312 
	C108.592255,25.181231 106.941757,24.297159 105.468918,24.081978 
	C99.277489,23.177389 94.210632,25.616785 91.170334,30.870705 
	C88.587776,35.333591 86.863800,40.323597 85.029549,45.182159 
	C82.268509,52.495575 83.477486,61.905430 73.988541,65.608482 
	C73.562401,65.774788 73.406837,66.634438 73.214699,67.000648 
	C76.285660,67.000648 79.175400,66.909775 82.057625,67.018364 
	C89.492744,67.298500 96.929581,67.961540 104.354851,67.834595 
	C106.839943,67.792107 109.923851,66.387550 111.559967,64.556519 
	C112.875061,63.084755 112.596764,60.030880 112.604721,57.677605 
	C112.606392,57.182655 110.772644,56.681503 109.784622,56.183212 
	C109.289597,58.064968 109.081947,60.096375 108.205482,61.779499 
	C107.545456,63.046974 105.964516,64.804901 104.902924,64.732834 
	C98.869537,64.323219 92.869049,63.428986 86.786812,61.926731 
M141.128983,28.451721 
	C143.176788,27.607929 145.224594,26.764137 147.272400,25.920345 
	C143.285812,24.999783 139.899445,24.999144 136.513077,24.999912 
	C128.917282,25.001638 128.917282,25.001925 128.553528,28.693602 
	C129.897308,28.520010 131.238541,28.346746 133.453735,28.060583 
	C130.546722,38.756924 127.715935,48.757725 125.162598,58.828869 
	C124.426994,61.730267 123.128059,63.394806 120.183678,64.141617 
	C118.918060,64.462624 117.916336,65.824051 116.846909,66.671448 
	C123.844185,66.671448 130.159546,66.671448 136.305389,66.671448 
	C134.228500,64.775299 131.100357,62.956139 131.344528,61.983715 
	C134.122879,50.918499 137.416168,39.982574 141.128983,28.451721 
z"/>
<path fill="#D00000" opacity="1.000000" stroke="none" 
	d="
M1.000000,73.416664 
	C3.526144,72.536278 5.714667,72.236618 8.057313,74.382042 
	C12.358784,78.321381 14.703425,77.951401 16.981186,72.524277 
	C20.071838,65.160316 22.444771,57.482800 24.888960,49.863876 
	C26.725538,44.138969 28.189648,38.294571 30.265768,30.918022 
	C26.119640,32.404346 22.599993,32.954212 20.072891,34.836582 
	C18.534637,35.982391 18.436028,39.160492 17.863493,41.468552 
	C17.475706,43.031837 17.568798,44.732155 17.048891,46.233372 
	C16.905539,46.647297 14.722301,46.959606 14.521937,46.647171 
	C13.503332,45.058830 11.956075,43.118839 12.192853,41.542099 
	C12.989056,36.240059 15.611031,31.503000 21.109861,30.211109 
	C26.332485,28.984112 31.860117,29.055359 37.972935,28.489115 
	C36.440155,33.637520 35.205235,37.918118 33.890320,42.174000 
	C31.283655,50.610813 28.692820,59.053368 25.977600,67.455467 
	C24.370476,72.428627 21.443768,76.410301 16.789370,79.077660 
	C11.309075,82.218323 6.403409,80.867393 1.325823,77.756073 
	C1.000000,76.611107 1.000000,75.222221 1.000000,73.416664 
z"/>
<path fill="#D00000" opacity="1.000000" stroke="none" 
	d="
M53.059120,35.221970 
	C53.686890,32.798244 54.272732,30.783522 55.012131,28.240707 
	C49.332657,29.238745 44.979427,31.367952 41.935070,36.106281 
	C38.640999,41.233273 41.507221,45.777214 43.016541,50.405174 
	C38.759220,52.802891 36.561810,51.657143 36.013577,46.948723 
	C34.838634,36.857838 41.819439,26.506666 52.017101,25.315685 
	C60.774704,24.292885 69.746460,25.103735 79.056587,25.103735 
	C78.200203,27.888830 77.229027,31.047274 75.997932,35.050983 
	C73.132614,32.234306 75.008652,27.677402 69.913071,27.839287 
	C62.296085,28.081272 62.263241,27.605137 59.938118,35.017254 
	C59.265171,37.162506 58.727112,39.350071 57.763546,42.832638 
	C62.636372,41.696514 66.620735,40.767540 71.000229,39.746441 
	C70.213669,43.067215 69.374756,46.609024 68.535835,50.150829 
	C67.992699,50.145706 67.449562,50.140579 66.906418,50.135452 
	C66.438187,48.920170 65.969948,47.704891 65.467247,46.400169 
	C62.010075,44.433842 56.967678,46.442593 55.972744,50.188755 
	C54.802280,54.595840 53.499657,58.967831 52.230427,63.439293 
	C54.549080,63.926346 56.815899,64.402512 59.082722,64.878685 
	C59.022625,65.585907 58.962528,66.293137 58.902431,67.000366 
	C55.932575,67.000366 52.962723,67.000366 49.992870,67.000366 
	C46.906834,67.000366 43.820801,67.000366 40.133144,67.000366 
	C40.408466,66.373665 40.729218,64.594673 41.298977,64.510979 
	C46.284752,63.778664 46.674980,59.294735 47.757866,56.044701 
	C49.973736,49.394314 51.315487,42.452671 53.059120,35.221970 
z"/>
<path fill="#D00000" opacity="1.000000" stroke="none" 
	d="
M179.773468,33.994286 
	C171.951126,34.719707 168.924316,41.211945 164.120026,45.453892 
	C158.800720,50.150566 161.511566,55.395000 162.287720,60.589634 
	C162.456268,61.717529 162.998734,62.835442 162.954391,63.941338 
	C162.759705,68.798485 162.104660,73.852821 169.498856,73.527504 
	C169.627701,73.521835 169.793320,74.352066 170.149719,75.408737 
	C165.855927,75.408737 161.845764,75.408737 157.396057,75.408737 
	C156.995972,69.753784 156.573181,63.778038 156.100067,57.090996 
	C147.362762,65.506157 144.047501,79.187447 129.739487,80.265816 
	C128.306641,76.893196 128.886795,74.781502 132.150970,74.482597 
	C137.945267,73.951996 140.958847,69.584412 144.425476,65.930611 
	C146.668381,63.566616 148.356018,60.683826 150.380188,58.102291 
	C153.019730,54.735920 154.297958,51.359467 152.619339,46.927326 
	C151.365829,43.617641 151.165756,39.908981 150.472763,36.252323 
	C148.867416,36.252323 147.258392,36.252323 145.620499,36.252323 
	C145.160812,32.531033 146.110779,32.251656 156.482880,33.379230 
	C157.218292,37.269054 157.966568,41.226864 158.781723,45.538479 
	C163.179871,40.846794 166.915176,36.271168 171.300049,32.438751 
	C173.431366,30.575977 176.718109,29.872753 179.606400,29.127674 
	C180.601624,28.870943 181.974579,30.078388 183.174973,30.616974 
	C182.170639,31.740273 181.166290,32.863571 179.773468,33.994286 
z"/>
<path fill="#D00000" opacity="1.000000" stroke="none" 
	d="
M86.822098,62.313164 
	C92.869049,63.428986 98.869537,64.323219 104.902924,64.732834 
	C105.964516,64.804901 107.545456,63.046974 108.205482,61.779499 
	C109.081947,60.096375 109.289597,58.064968 109.784622,56.183212 
	C110.772644,56.681503 112.606392,57.182655 112.604721,57.677605 
	C112.596764,60.030880 112.875061,63.084755 111.559967,64.556519 
	C109.923851,66.387550 106.839943,67.792107 104.354851,67.834595 
	C96.929581,67.961540 89.492744,67.298500 82.057625,67.018364 
	C79.175400,66.909775 76.285660,67.000648 73.214699,67.000648 
	C73.406837,66.634438 73.562401,65.774788 73.988541,65.608482 
	C83.477486,61.905430 82.268509,52.495575 85.029549,45.182159 
	C86.863800,40.323597 88.587776,35.333591 91.170334,30.870705 
	C94.210632,25.616785 99.277489,23.177389 105.468918,24.081978 
	C106.941757,24.297159 108.592255,25.181231 109.570450,26.282312 
	C110.311966,27.116962 110.115288,28.785101 110.336098,30.082344 
	C109.152397,30.160587 107.797005,30.656237 106.812126,30.251122 
	C98.842461,26.972946 98.146904,26.900360 95.051231,35.276268 
	C91.831467,43.987911 89.504295,53.029449 86.822098,62.313164 
z"/>
<path fill="#D00000" opacity="1.000000" stroke="none" 
	d="
M140.850388,28.731903 
	C137.416168,39.982574 134.122879,50.918499 131.344528,61.983715 
	C131.100357,62.956139 134.228500,64.775299 136.305389,66.671448 
	C130.159546,66.671448 123.844185,66.671448 116.846909,66.671448 
	C117.916336,65.824051 118.918060,64.462624 120.183678,64.141617 
	C123.128059,63.394806 124.426994,61.730267 125.162598,58.828869 
	C127.715935,48.757725 130.546722,38.756924 133.453735,28.060583 
	C131.238541,28.346746 129.897308,28.520010 128.553528,28.693602 
	C128.917282,25.001925 128.917282,25.001638 136.513077,24.999912 
	C139.899445,24.999144 143.285812,24.999783 147.272400,25.920345 
	C145.224594,26.764137 143.176788,27.607929 140.850388,28.731903 
z"/>
</svg>